PathFileType	4	(X/Y/Z)	5_coords_data.trc
DataRate	CameraRate	NumFrames	NumMarkers	Units	OrigDataRate	OrigDataStartFrame	OrigNumFrames
30.0	30.0	6	21	m	30.0	39	68
Frame#	Time	THUMB_TIP	THUMB_IP	THUMB_MCP	THUMB_CMC	INDEX_TIP	INDEX_DIP	INDEX_PIP	INDEX_MCP	MIDDLE_TIP	MIDDLE_DIP	MIDDLE_PIP	MIDDLE_MCP	RING_TIP	RING_DIP	RING_PIP	RING_MCP	PINKY_TIP	PINKY_DIP	PINKY_PIP	PINKY_MCP	WRIST
X1	Y1	Z1	X2	Y2	Z2	X3	Y3	Z3	X4	Y4	Z4	X5	Y5	Z5	X6	Y6	Z6	X7	Y7	Z7	X8	Y8	Z8	X9	Y9	Z9	X10	Y10	Z10	X11	Y11	Z11	X12	Y12	Z12	X13	Y13	Z13	X14	Y14	Z14	X15	Y15	Z15	X16	Y16	Z16	X17	Y17	Z17	X18	Y18	Z18	X19	Y19	Z19	X20	Y20	Z20	X21	Y21	Z21
37	1.2666666666666608	0.541162639524727	-0.01947068205694069	-0.11761108844547463	0.519439484752914	-0.020179965224096597	-0.12506772737656507	0.4897435271955607	-0.014988418917262658	-0.11732060199382593	0.4712622964456519	-0.02774804529327235	-0.07877807944128323	0.5695767080973027	0.03759859180552727	-0.15922947998149517	0.5551163692796336	0.036309158606517844	-0.14840192424146287	0.5368022287963543	0.03606403026294425	-0.1311815292560424	0.5061075332977902	0.028757866450904057	-0.10257922633124156	0.50440786386083	-0.029840634765130325	-0.10247895143389735	0.5161928401325389	-0.017517123136044255	-0.10858185200682507	0.5320700451523447	0.005045596029676136	-0.1179758721583836	0.5165717768078916	0.028975308349446838	-0.08357644676178222	0.5200922271436094	-0.03169194926734442	-0.1065816389552707	0.5338613789965629	-0.020058243121322095	-0.10632214221480782	0.5505688898684868	-0.0017474206460055264	-0.10392363439910457	0.5297530603452656	0.014485322287424274	-0.0732981526540385	0.6006117589642422	0.015755123064206233	-0.08575426594715996	0.5849849216420319	0.010916235549314424	-0.08071570236977038	0.5654629141469735	0.005483370657594855	-0.07522141247650754	0.5326370244555798	-0.007995984372936471	-0.06876762251018942	0.4622830810018609	-0.023011742144276925	-0.051989820119430985
38	1.299999999999994	0.5404923811603942	-0.02242132968803756	-0.11948929917348253	0.5184830433506992	-0.021098970028875508	-0.12595771583527454	0.4892146585781201	-0.014618738431216749	-0.1175798729598701	0.471163006077153	-0.02745829965083324	-0.07886071091222174	0.5723713829065943	0.03337834784866711	-0.15807496462454573	0.5581237692570575	0.03297108509516167	-0.14690179845093393	0.5400025730648199	0.033731896183443855	-0.1294933738223128	0.5087143849018503	0.027785818450996258	-0.1012209573164975	0.5024213356346366	-0.029166112009593625	-0.10281864480549485	0.5153590242197625	-0.01799916674582036	-0.10881160296905584	0.5335060413107879	0.0031391470069490612	-0.11737121816995805	0.5191844915472945	0.02687813693862018	-0.08233550081757884	0.5183774283761893	-0.032566258916457924	-0.10659101948283106	0.5329590409510285	-0.02196983768659877	-0.10628699343677572	0.5511216271612447	-0.005124300452375663	-0.10373193640279826	0.5316087475664202	0.011454998582043352	-0.07244143932388952	0.6018436897005062	0.007748423062303944	-0.08861566076551902	0.5862685457060252	0.004074251102661242	-0.08253986040983258	0.5667634596533289	0.00013485451280192962	-0.0758432350220189	0.5333519193536356	-0.011141878392872284	-0.06826776666844064	0.4622830810018609	-0.023011742144276925	-0.051989820119430985
39	1.3333333333333275	0.5397078129994648	-0.025315078154500625	-0.12253401227606489	0.5174343459858102	-0.022091971676117317	-0.1271712799867586	0.48888833855769875	-0.013993159908817554	-0.11777156148714085	0.4711779422368563	-0.026951920536097518	-0.07893469259734043	0.5760419086944212	0.026848190586132192	-0.15686473270422988	0.5621474596560724	0.02753053268376715	-0.14526823775176584	0.5443526512985747	0.02956050170116009	-0.1276264165785322	0.5125125210673328	0.02565822930914352	-0.09961544603061895	0.5009639043660042	-0.02964999468803975	-0.10543663969537964	0.5151320174866187	-0.0196043644013566	-0.11056985338124384	0.5356513791469588	5.239817221980303e-05	-0.11704882183140752	0.5228365298117774	0.02320811756640251	-0.08105243011147995	0.5164780422990927	-0.033893596764763	-0.10819655051186647	0.5320501578726442	-0.024848417382052457	-0.10736351599965019	0.5517681567179112	-0.01004705105871928	-0.1038563725037912	0.534003647015909	0.006699931912795054	-0.0716277890661145	0.6026027998022285	-0.0034584427063735212	-0.0923168125058747	0.5872846060391709	-0.005683910037276196	-0.08500926606424963	0.5680156366591194	-0.007708685787416125	-0.0769210572889843	0.5340653644199607	-0.015890405580621048	-0.06790319018459123	0.462283081001861	-0.023011742144276925	-0.051989820119430985
40	1.3666666666666607	0.5388887618143123	-0.02744273622577098	-0.12668556963579303	0.5165028539933044	-0.022657551046192048	-0.12867884177638944	0.4890468313375259	-0.012901107745908913	-0.1177335855412101	0.471352075590165	-0.02613766095203418	-0.07898336904810316	0.5801609689378876	0.017756431090566127	-0.15565416777010782	0.5667494624173492	0.01973370117152451	-0.1436449256676059	0.5494242794089554	0.02327310151897677	-0.12577538420997142	0.5171444398903047	0.022055914685693234	-0.09802351020364469	0.5005146696042592	-0.03175261787918093	-0.11038060720671808	0.5157799841961425	-0.022668836572193207	-0.11390978382140571	0.538357965016238	-0.0045185964856322425	-0.11710558057457926	0.5270760434191994	0.017754367110971336	-0.0800545177193433	0.5150791358572119	-0.03659624652308269	-0.11175781243232216	0.5314111142980649	-0.029242908675228163	-0.10970966626985706	0.5522337699597358	-0.016656153770216675	-0.10440206877601288	0.5364919938771351	0.00016554977045646346	-0.0711763617142368	0.6019318103828644	-0.01775010932987764	-0.09711666495019383	0.5871909697018188	-0.018233728424782214	-0.08842910323317144	0.5685370598849453	-0.017972126322826187	-0.0787971132059655	0.5343931364513431	-0.022265398991046736	-0.06799693944085261	0.4622830810018609	-0.023011742144276925	-0.051989820119430985
41	1.3999999999999937	0.5380688458698337	-0.028392552834849538	-0.1314664958419106	0.5158802576775343	-0.022555804891153608	-0.13020200880191285	0.4898799690296767	-0.011292512897502549	-0.11732011283533111	0.4717042687418388	-0.025028574971185824	-0.07896839165160047	0.5842424442315737	0.006209648908504173	-0.15426041788925526	0.5714155627453539	0.009640173397486684	-0.14194365642087567	0.5546363776740569	0.014880756831586517	-0.1239713147088613	0.5221158330675479	0.016917588336205047	-0.09655049068918875	0.5016672469097032	-0.03620670267113246	-0.11736902285551187	0.5176597087180709	-0.02779908453162161	-0.11861526622182206	0.541419793983877	-0.010961512058685341	-0.1174473401196047	0.5313714234023176	0.010404629396350784	-0.07951758703605505	0.5145893707390496	-0.04163911497150252	-0.1167526242806578	0.531193080603412	-0.035752569117251	-0.11292308166490483	0.5523842395394314	-0.02518289253399253	-0.10521615628096043	0.5385632725792258	-0.008115123623223197	-0.0712692422725637	0.5989535753247344	-0.03478765910754522	-0.1026518533038484	0.5851821747720436	-0.033274222717747826	-0.09259909064319716	0.5676208991440378	-0.03045932392810613	-0.08144158365815413	0.5338949021446988	-0.0301134794703507	-0.06866187438870547	0.4622830810018608	-0.023011742144276925	-0.051989820119430985
42	1.4333333333333271	0.5372259659238819	-0.027960328621893016	-0.13635312506132463	0.5156428685403951	-0.021729881286087882	-0.13152079298139824	0.4913778513254644	-0.009326707445736826	-0.1164811713689658	0.47221446661892696	-0.023702941208147865	-0.07885168041575513	0.5877732698438495	-0.007386344010147594	-0.15261242308021666	0.5755947635966705	-0.0024178900205429343	-0.14016258571017032	0.5594226317474529	0.004606572414059151	-0.1222425156222387	0.5269345670322235	0.0102346256066852	-0.09528909724311557	0.5045453086533461	-0.04337467929107508	-0.1259828869776216	0.5206595281859454	-0.03527756375611657	-0.12431896123747349	0.5443353729118959	-0.019485329939289864	-0.11803650331184001	0.5351104049853841	0.0011927937461786442	-0.07952075213646631	0.5148143150727116	-0.049462686201200534	-0.12273629227288799	0.5311163456035409	-0.044654902880713276	-0.116725550212613	0.5518364764465029	-0.03562429689552493	-0.10627067994125983	0.539666125992122	-0.018016628219891917	-0.07196946410819222	0.5930152589976599	-0.05377377252807125	-0.10819589808172037	0.5806008604357786	-0.05012215932370556	-0.09699105853121986	0.5646037194108592	-0.044645115071681674	-0.084544955354313	0.5321200378095683	-0.0391220972189662	-0.06987559427672868	0.4622830810018609	-0.023011742144276925	-0.051989820119430985
